<svg width="31" height="31" viewBox="0 0 31 31" fill="none" xmlns="http://www.w3.org/2000/svg">
<path d="M15.5 5.16663C16.8702 5.16663 18.1844 5.71097 19.1533 6.67991C20.1223 7.64885 20.6666 8.96301 20.6666 10.3333C20.6666 11.7036 20.1223 13.0177 19.1533 13.9867C18.1844 14.9556 16.8702 15.5 15.5 15.5C14.1297 15.5 12.8155 14.9556 11.8466 13.9867C10.8776 13.0177 10.3333 11.7036 10.3333 10.3333C10.3333 8.96301 10.8776 7.64885 11.8466 6.67991C12.8155 5.71097 14.1297 5.16663 15.5 5.16663ZM15.5 18.0833C21.2091 18.0833 25.8333 20.3954 25.8333 23.25V25.8333H5.16663V23.25C5.16663 20.3954 9.79079 18.0833 15.5 18.0833Z" fill="white"/>
</svg>
