<svg width="47" height="47" viewBox="0 0 47 47" fill="none" xmlns="http://www.w3.org/2000/svg">
<rect width="47" height="47" rx="5" fill="white"/>
<path fill-rule="evenodd" clip-rule="evenodd" d="M25.4446 14.6397C25.6014 14.4123 25.6613 14.1337 25.6113 13.8636C25.5614 13.5935 25.4058 13.3532 25.1776 13.1942C24.9495 13.0352 24.6669 12.9701 24.3905 13.0128C24.114 13.0555 23.8655 13.2026 23.6982 13.4227L22.6268 14.9035C22.5859 14.9596 22.5507 15.0194 22.5218 15.0822H18.6786C18.2523 15.0822 17.8435 15.2483 17.5421 15.5439C17.2408 15.8396 17.0714 16.2406 17.0714 16.6587V18.2352L17.0746 18.3234C16.7604 18.4317 16.4882 18.633 16.2957 18.8996C16.1032 19.1662 15.9998 19.4849 16 19.8116V21.3881C16 21.666 16.1121 21.9325 16.3119 22.1294C16.5117 22.3264 16.7828 22.4377 17.0661 22.4391L18.0518 32.1082C18.1049 32.6267 18.3525 33.1073 18.7464 33.4569C19.1404 33.8065 19.6527 34 20.1839 34H26.8161C27.3473 34 27.8596 33.8065 28.2536 33.4569C28.6475 33.1073 28.8951 32.6267 28.9482 32.1082L29.9339 22.4391C30.2172 22.4377 30.4883 22.3264 30.6881 22.1294C30.8879 21.9325 31 21.666 31 21.3881V19.8116C31.0002 19.4849 30.8968 19.1662 30.7043 18.8996C30.5118 18.633 30.2396 18.4317 29.9254 18.3234L29.9286 18.2352V16.6587C29.9286 16.2406 29.7592 15.8396 29.4578 15.5439C29.1565 15.2483 28.7477 15.0822 28.3214 15.0822H25.1254L25.4446 14.6397ZM19.2143 18.2352V17.1842H27.7857V18.2352H19.2143Z" fill="#1E1E1E"/>
</svg>
