<svg width="47" height="47" viewBox="0 0 47 47" fill="none" xmlns="http://www.w3.org/2000/svg">
<rect width="47" height="47" rx="5" fill="white"/>
<path d="M22.0265 14.0771C22.1029 14.124 22.1699 14.1912 22.2228 14.274C22.2756 14.3567 22.3131 14.4529 22.3323 14.5557C22.3531 14.6686 22.9231 17.6886 22.9231 19.7143C22.9231 21.0714 22.4131 22.2814 21.6192 23.0657C21.3308 23.3514 21.1923 23.6629 21.1923 23.9229V24.6171C21.1923 24.6505 21.1938 24.6819 21.1969 24.7114C21.2362 25.0657 21.3781 26.3814 21.5108 27.7457C21.6412 29.0843 21.7692 30.5443 21.7692 31.1429C21.7692 31.9006 21.5261 32.6273 21.0933 33.1632C20.6605 33.699 20.0736 34 19.4615 34C18.8495 34 18.2625 33.699 17.8298 33.1632C17.397 32.6273 17.1538 31.9006 17.1538 31.1429C17.1538 30.5429 17.2819 29.0857 17.4123 27.7457C17.545 26.3814 17.6869 25.0657 17.7262 24.7114L17.7308 24.6171V23.9229C17.7308 23.6629 17.5923 23.3514 17.3038 23.0657C16.8971 22.6643 16.5686 22.1545 16.3429 21.5743C16.1172 20.9941 16 20.3583 16 19.7143C16 17.6957 16.5654 14.6914 16.5908 14.5571C16.6208 14.3983 16.6933 14.2568 16.7966 14.1556C16.8999 14.0545 17.0279 13.9996 17.1596 14C17.4827 14 17.7446 14.3243 17.7446 14.7243V19.0071C17.7401 19.1036 17.7515 19.2002 17.7783 19.291C17.8051 19.3818 17.8466 19.4648 17.9003 19.5349C17.954 19.605 18.0188 19.6608 18.0906 19.6987C18.1623 19.7367 18.2396 19.756 18.3177 19.7555C18.3957 19.755 18.4729 19.7347 18.5444 19.6959C18.6158 19.657 18.6801 19.6005 18.7332 19.5297C18.7864 19.4589 18.8272 19.3754 18.8532 19.2843C18.8793 19.1932 18.89 19.0964 18.8846 19V14.7143C18.8846 14.5248 18.9454 14.3432 19.0536 14.2092C19.1618 14.0753 19.3085 14 19.4615 14C19.6145 14 19.7613 14.0753 19.8695 14.2092C19.9777 14.3432 20.0385 14.5248 20.0385 14.7143V19.0371C20.0417 19.2247 20.1049 19.403 20.2143 19.5328C20.3237 19.6626 20.4703 19.7333 20.6217 19.7293C20.7732 19.7253 20.9172 19.647 21.022 19.5116C21.1269 19.3761 21.184 19.1947 21.1808 19.0071V14.7214C21.1808 14.3229 21.4415 14 21.7646 14C21.79 14 21.9031 14 22.0265 14.0771ZM24.6538 20.4286C24.6538 18.7236 25.2009 17.0885 26.1746 15.8829C27.1484 14.6773 28.4691 14 29.8462 14C29.9992 14 30.1459 14.0753 30.2541 14.2092C30.3623 14.3432 30.4231 14.5248 30.4231 14.7143V23.2471L30.445 23.5C30.5368 24.5662 30.6249 25.6329 30.7092 26.7C30.8512 28.4943 31 30.5057 31 31.1429C31 31.9006 30.7569 32.6273 30.3241 33.1632C29.8913 33.699 29.3043 34 28.6923 34C28.0803 34 27.4933 33.699 27.0605 33.1632C26.6277 32.6273 26.3846 31.9006 26.3846 31.1429C26.3846 30.5057 26.5335 28.4943 26.6754 26.7C26.7481 25.79 26.8208 24.9186 26.875 24.2729L26.8981 24H25.8077C25.5017 24 25.2082 23.8495 24.9918 23.5816C24.7754 23.3137 24.6538 22.9503 24.6538 22.5714V20.4286Z" fill="#1E1E1E"/>
</svg>
