<svg width="114" height="34" viewBox="0 0 114 34" fill="none" xmlns="http://www.w3.org/2000/svg">
<path d="M0.886 0.799998H14.272V5.4H5.946V14.37H12.478V18.97H5.946V33H0.886V0.799998ZM16.6985 0.799998H24.1965C26.8032 0.799998 28.7045 1.41333 29.9005 2.64C31.0965 3.836 31.6945 5.69133 31.6945 8.206V10.184C31.6945 13.5267 30.5905 15.6427 28.3825 16.532V16.624C29.6092 16.992 30.4678 17.7433 30.9585 18.878C31.4798 20.0127 31.7405 21.5307 31.7405 23.432V29.09C31.7405 30.01 31.7712 30.7613 31.8325 31.344C31.8938 31.896 32.0472 32.448 32.2925 33H27.1405C26.9565 32.4787 26.8338 31.988 26.7725 31.528C26.7112 31.068 26.6805 30.24 26.6805 29.044V23.156C26.6805 21.684 26.4352 20.6567 25.9445 20.074C25.4845 19.4913 24.6718 19.2 23.5065 19.2H21.7585V33H16.6985V0.799998ZM23.5985 14.6C24.6105 14.6 25.3618 14.3393 25.8525 13.818C26.3738 13.2967 26.6345 12.4227 26.6345 11.196V8.712C26.6345 7.54667 26.4198 6.70333 25.9905 6.182C25.5918 5.66067 24.9478 5.4 24.0585 5.4H21.7585V14.6H23.5985ZM35.2512 0.799998H49.0512V5.4H40.3112V13.91H47.2572V18.51H40.3112V28.4H49.0512V33H35.2512V0.799998ZM51.9622 0.799998H58.3102L63.2322 20.074H63.3242V0.799998H67.8322V33H62.6342L56.5622 9.494H56.4702V33H51.9622V0.799998Z" fill="white"/>
<path d="M78.171 33.46C75.7177 33.46 73.8624 32.77 72.605 31.39C71.3477 29.9793 70.719 27.9707 70.719 25.364V23.524H75.503V25.732C75.503 27.8173 76.377 28.86 78.125 28.86C78.9837 28.86 79.6277 28.6147 80.057 28.124C80.517 27.6027 80.747 26.7747 80.747 25.64C80.747 24.2907 80.4404 23.11 79.827 22.098C79.2137 21.0553 78.079 19.8133 76.423 18.372C74.3377 16.532 72.881 14.876 72.053 13.404C71.225 11.9013 70.811 10.2147 70.811 8.344C70.811 5.79867 71.455 3.836 72.743 2.456C74.031 1.04533 75.9017 0.339998 78.355 0.339998C80.7777 0.339998 82.6024 1.04533 83.829 2.456C85.0864 3.836 85.715 5.82933 85.715 8.436V9.77H80.931V8.114C80.931 7.01 80.7164 6.21267 80.287 5.722C79.8577 5.20067 79.229 4.94 78.401 4.94C76.7144 4.94 75.871 5.96733 75.871 8.022C75.871 9.18733 76.1777 10.276 76.791 11.288C77.435 12.3 78.585 13.5267 80.241 14.968C82.357 16.808 83.8137 18.4793 84.611 19.982C85.4084 21.4847 85.807 23.248 85.807 25.272C85.807 27.9093 85.1477 29.9333 83.829 31.344C82.541 32.7547 80.655 33.46 78.171 33.46ZM88.7083 0.799998H93.7683V33H88.7083V0.799998ZM97.5579 0.799998H105.056C107.663 0.799998 109.564 1.41333 110.76 2.64C111.956 3.836 112.554 5.69133 112.554 8.206V10.184C112.554 13.5267 111.45 15.6427 109.242 16.532V16.624C110.469 16.992 111.327 17.7433 111.818 18.878C112.339 20.0127 112.6 21.5307 112.6 23.432V29.09C112.6 30.01 112.631 30.7613 112.692 31.344C112.753 31.896 112.907 32.448 113.152 33H108C107.816 32.4787 107.693 31.988 107.632 31.528C107.571 31.068 107.54 30.24 107.54 29.044V23.156C107.54 21.684 107.295 20.6567 106.804 20.074C106.344 19.4913 105.531 19.2 104.366 19.2H102.618V33H97.5579V0.799998ZM104.458 14.6C105.47 14.6 106.221 14.3393 106.712 13.818C107.233 13.2967 107.494 12.4227 107.494 11.196V8.712C107.494 7.54667 107.279 6.70333 106.85 6.182C106.451 5.66067 105.807 5.4 104.918 5.4H102.618V14.6H104.458Z" fill="#D49D55"/>
</svg>
