<svg width="99" height="30" viewBox="0 0 99 30" fill="none" xmlns="http://www.w3.org/2000/svg">
<path d="M0.64 0.999998H12.28V5H5.04V12.8H10.72V16.8H5.04V29H0.64V0.999998ZM14.39 0.999998H20.91C23.1767 0.999998 24.83 1.53333 25.87 2.6C26.91 3.64 27.43 5.25333 27.43 7.44V9.16C27.43 12.0667 26.47 13.9067 24.55 14.68V14.76C25.6167 15.08 26.3633 15.7333 26.79 16.72C27.2433 17.7067 27.47 19.0267 27.47 20.68V25.6C27.47 26.4 27.4967 27.0533 27.55 27.56C27.6033 28.04 27.7367 28.52 27.95 29H23.47C23.31 28.5467 23.2033 28.12 23.15 27.72C23.0967 27.32 23.07 26.6 23.07 25.56V20.44C23.07 19.16 22.8567 18.2667 22.43 17.76C22.03 17.2533 21.3233 17 20.31 17H18.79V29H14.39V0.999998ZM20.39 13C21.27 13 21.9233 12.7733 22.35 12.32C22.8033 11.8667 23.03 11.1067 23.03 10.04V7.88C23.03 6.86667 22.8433 6.13333 22.47 5.68C22.1233 5.22667 21.5633 5 20.79 5H18.79V13H20.39ZM30.5228 0.999998H42.5228V5H34.9228V12.4H40.9628V16.4H34.9228V25H42.5228V29H30.5228V0.999998ZM45.0541 0.999998H50.5741L54.8541 17.76H54.9341V0.999998H58.8541V29H54.3341L49.0541 8.56H48.9741V29H45.0541V0.999998Z" fill="#8C0B40"/>
<path d="M67.8444 29.4C65.711 29.4 64.0977 28.8 63.0044 27.6C61.911 26.3733 61.3644 24.6267 61.3644 22.36V20.76H65.5244V22.68C65.5244 24.4933 66.2844 25.4 67.8044 25.4C68.551 25.4 69.111 25.1867 69.4844 24.76C69.8844 24.3067 70.0844 23.5867 70.0844 22.6C70.0844 21.4267 69.8177 20.4 69.2844 19.52C68.751 18.6133 67.7644 17.5333 66.3244 16.28C64.511 14.68 63.2444 13.24 62.5244 11.96C61.8044 10.6533 61.4444 9.18667 61.4444 7.56C61.4444 5.34667 62.0044 3.64 63.1244 2.44C64.2444 1.21333 65.871 0.599998 68.0044 0.599998C70.111 0.599998 71.6977 1.21333 72.7644 2.44C73.8577 3.64 74.4044 5.37333 74.4044 7.64V8.8H70.2444V7.36C70.2444 6.4 70.0577 5.70667 69.6844 5.28C69.311 4.82667 68.7644 4.6 68.0444 4.6C66.5777 4.6 65.8444 5.49333 65.8444 7.28C65.8444 8.29333 66.111 9.24 66.6444 10.12C67.2044 11 68.2044 12.0667 69.6444 13.32C71.4844 14.92 72.751 16.3733 73.4444 17.68C74.1377 18.9867 74.4844 20.52 74.4844 22.28C74.4844 24.5733 73.911 26.3333 72.7644 27.56C71.6444 28.7867 70.0044 29.4 67.8444 29.4ZM77.0072 0.999998H81.4072V29H77.0072V0.999998ZM84.7025 0.999998H91.2225C93.4892 0.999998 95.1425 1.53333 96.1825 2.6C97.2225 3.64 97.7425 5.25333 97.7425 7.44V9.16C97.7425 12.0667 96.7825 13.9067 94.8625 14.68V14.76C95.9292 15.08 96.6758 15.7333 97.1025 16.72C97.5558 17.7067 97.7825 19.0267 97.7825 20.68V25.6C97.7825 26.4 97.8092 27.0533 97.8625 27.56C97.9158 28.04 98.0492 28.52 98.2625 29H93.7825C93.6225 28.5467 93.5158 28.12 93.4625 27.72C93.4092 27.32 93.3825 26.6 93.3825 25.56V20.44C93.3825 19.16 93.1692 18.2667 92.7425 17.76C92.3425 17.2533 91.6358 17 90.6225 17H89.1025V29H84.7025V0.999998ZM90.7025 13C91.5825 13 92.2358 12.7733 92.6625 12.32C93.1158 11.8667 93.3425 11.1067 93.3425 10.04V7.88C93.3425 6.86667 93.1558 6.13333 92.7825 5.68C92.4358 5.22667 91.8758 5 91.1025 5H89.1025V13H90.7025Z" fill="#D49D55"/>
</svg>
