<svg width="30" height="30" viewBox="0 0 30 30" fill="none" xmlns="http://www.w3.org/2000/svg">
<path fill-rule="evenodd" clip-rule="evenodd" d="M22.5405 10.8479C22.8461 10.5934 23.2402 10.4706 23.6362 10.5067C24.0323 10.5427 24.3978 10.7345 24.6525 11.0399L27.777 14.7899C28.0204 15.0966 28.1342 15.4864 28.094 15.8759C28.0539 16.2655 27.8631 16.6239 27.5622 16.8746C27.2614 17.1252 26.8745 17.2484 26.4841 17.2176C26.0937 17.1868 25.7308 17.0046 25.473 16.7099L22.3485 12.9599C22.094 12.6543 21.9713 12.2602 22.0073 11.8641C22.0433 11.4681 22.2351 11.1026 22.5405 10.8479Z" fill="#FFFBF0"/>
<path fill-rule="evenodd" clip-rule="evenodd" d="M22.5405 20.6521C22.2349 20.3976 22.0428 20.0322 22.0065 19.6361C21.9702 19.2401 22.0927 18.8458 22.347 18.5401L25.473 14.7901C25.5973 14.6334 25.7517 14.5031 25.9271 14.407C26.1025 14.3109 26.2954 14.2508 26.4944 14.2303C26.6933 14.2098 26.8944 14.2293 27.0857 14.2877C27.277 14.346 27.4547 14.442 27.6083 14.5701C27.762 14.6981 27.8885 14.8556 27.9804 15.0333C28.0723 15.2109 28.1277 15.4052 28.1434 15.6045C28.1591 15.8039 28.1348 16.0045 28.0719 16.1943C28.009 16.3842 27.9087 16.5595 27.777 16.7101L24.6525 20.4601C24.3979 20.7655 24.0323 20.9573 23.6363 20.9933C23.2402 21.0293 22.8461 20.9066 22.5405 20.6521Z" fill="#FFFBF0"/>
<path fill-rule="evenodd" clip-rule="evenodd" d="M26.25 15.75C26.25 16.1478 26.092 16.5294 25.8107 16.8107C25.5294 17.092 25.1478 17.25 24.75 17.25H15C14.6022 17.25 14.2206 17.092 13.9393 16.8107C13.658 16.5294 13.5 16.1478 13.5 15.75C13.5 15.3522 13.658 14.9706 13.9393 14.6893C14.2206 14.408 14.6022 14.25 15 14.25H24.75C25.1478 14.25 25.5294 14.408 25.8107 14.6893C26.092 14.9706 26.25 15.3522 26.25 15.75ZM4.5 5.25C4.5 4.85218 4.65804 4.47064 4.93934 4.18934C5.22064 3.90804 5.60218 3.75 6 3.75H19.5C19.8978 3.75 20.2794 3.90804 20.5607 4.18934C20.842 4.47064 21 4.85218 21 5.25C21 5.64782 20.842 6.02936 20.5607 6.31066C20.2794 6.59196 19.8978 6.75 19.5 6.75H6C5.60218 6.75 5.22064 6.59196 4.93934 6.31066C4.65804 6.02936 4.5 5.64782 4.5 5.25ZM4.5 26.25C4.5 25.8522 4.65804 25.4706 4.93934 25.1893C5.22064 24.908 5.60218 24.75 6 24.75H19.5C19.8978 24.75 20.2794 24.908 20.5607 25.1893C20.842 25.4706 21 25.8522 21 26.25C21 26.6478 20.842 27.0294 20.5607 27.3107C20.2794 27.592 19.8978 27.75 19.5 27.75H6C5.60218 27.75 5.22064 27.592 4.93934 27.3107C4.65804 27.0294 4.5 26.6478 4.5 26.25Z" fill="#FFFBF0"/>
<path fill-rule="evenodd" clip-rule="evenodd" d="M19.5 3.75C19.8978 3.75 20.2794 3.90804 20.5607 4.18934C20.842 4.47064 21 4.85218 21 5.25V11.25C21 11.6478 20.842 12.0294 20.5607 12.3107C20.2794 12.592 19.8978 12.75 19.5 12.75C19.1022 12.75 18.7206 12.592 18.4393 12.3107C18.158 12.0294 18 11.6478 18 11.25V5.25C18 4.85218 18.158 4.47064 18.4393 4.18934C18.7206 3.90804 19.1022 3.75 19.5 3.75ZM19.5 18.75C19.8978 18.75 20.2794 18.908 20.5607 19.1893C20.842 19.4706 21 19.8522 21 20.25V26.25C21 26.6478 20.842 27.0294 20.5607 27.3107C20.2794 27.592 19.8978 27.75 19.5 27.75C19.1022 27.75 18.7206 27.592 18.4393 27.3107C18.158 27.0294 18 26.6478 18 26.25V20.25C18 19.8522 18.158 19.4706 18.4393 19.1893C18.7206 18.908 19.1022 18.75 19.5 18.75ZM6 3.75C6.39782 3.75 6.77936 3.90804 7.06066 4.18934C7.34196 4.47064 7.5 4.85218 7.5 5.25V26.25C7.5 26.6478 7.34196 27.0294 7.06066 27.3107C6.77936 27.592 6.39782 27.75 6 27.75C5.60218 27.75 5.22064 27.592 4.93934 27.3107C4.65804 27.0294 4.5 26.6478 4.5 26.25V5.25C4.5 4.85218 4.65804 4.47064 4.93934 4.18934C5.22064 3.90804 5.60218 3.75 6 3.75Z" fill="#FFFBF0"/>
</svg>
