<svg width="16" height="16" viewBox="0 0 16 16" fill="none" xmlns="http://www.w3.org/2000/svg">
<g clip-path="url(#clip0_79_1728)">
<path fill-rule="evenodd" clip-rule="evenodd" d="M3.49992 6.20204V5.33337C3.49992 4.1399 3.97402 2.99531 4.81794 2.15139C5.66185 1.30748 6.80644 0.833374 7.99992 0.833374C9.19339 0.833374 10.338 1.30748 11.1819 2.15139C12.0258 2.99531 12.4999 4.1399 12.4999 5.33337V6.20204C12.651 6.21226 12.7937 6.22648 12.9279 6.24471C13.5279 6.32471 14.0333 6.49804 14.4346 6.89871C14.8359 7.30004 15.0079 7.80537 15.0893 8.40537C15.1666 8.98337 15.1666 9.71871 15.1666 10.63V10.7034C15.1666 11.6147 15.1666 12.35 15.0893 12.928C15.0079 13.528 14.8359 14.0334 14.4346 14.4347C14.0333 14.836 13.5279 15.008 12.9279 15.0894C12.3499 15.1667 11.6146 15.1667 10.7033 15.1667H5.29659C4.38525 15.1667 3.64992 15.1667 3.07192 15.0894C2.47192 15.008 1.96659 14.836 1.56525 14.4347C1.16392 14.0334 0.991919 13.528 0.911252 12.928C0.833252 12.35 0.833252 11.6147 0.833252 10.7034V10.63C0.833252 9.71871 0.833252 8.98337 0.911252 8.40537C0.991252 7.80537 1.16459 7.30004 1.56525 6.89871C1.96659 6.49737 2.47192 6.32537 3.07192 6.24471C3.2057 6.22648 3.34836 6.21226 3.49992 6.20204ZM4.49992 5.33337C4.49992 4.40512 4.86867 3.51488 5.52504 2.8585C6.18142 2.20212 7.07166 1.83337 7.99992 1.83337C8.92818 1.83337 9.81841 2.20212 10.4748 2.8585C11.1312 3.51488 11.4999 4.40512 11.4999 5.33337V6.16871C11.251 6.16693 10.9855 6.16626 10.7033 6.16671H5.29659C5.01481 6.16671 4.74925 6.16737 4.49992 6.16871V5.33337ZM2.27259 7.60604C2.45725 7.42137 2.71592 7.30137 3.20592 7.23537C3.70859 7.16804 4.37659 7.16671 5.33325 7.16671H10.6666C11.6233 7.16671 12.2906 7.16804 12.7946 7.23537C13.2839 7.30137 13.5426 7.42204 13.7273 7.60604C13.9119 7.79071 14.0319 8.04937 14.0979 8.53937C14.1653 9.04271 14.1666 9.71004 14.1666 10.6667C14.1666 11.6234 14.1653 12.2907 14.0979 12.7947C14.0319 13.284 13.9113 13.5427 13.7273 13.7274C13.5426 13.912 13.2839 14.032 12.7939 14.098C12.2906 14.1654 11.6233 14.1667 10.6666 14.1667H5.33325C4.37659 14.1667 3.70859 14.1654 3.20525 14.098C2.71592 14.032 2.45725 13.9114 2.27259 13.7274C2.08792 13.5427 1.96792 13.284 1.90192 12.794C1.83459 12.2907 1.83325 11.6234 1.83325 10.6667C1.83325 9.71004 1.83459 9.04204 1.90192 8.53871C1.96792 8.04937 2.08859 7.79071 2.27259 7.60604Z" fill="#ADB3BC"/>
</g>
<defs>
<clipPath id="clip0_79_1728">
<rect width="16" height="16" fill="white"/>
</clipPath>
</defs>
</svg>
