<svg width="21" height="21" viewBox="0 0 21 21" fill="none" xmlns="http://www.w3.org/2000/svg">
<path fill-rule="evenodd" clip-rule="evenodd" d="M4.59375 8.14013V7C4.59375 5.43357 5.21601 3.93129 6.32365 2.82365C7.43129 1.71601 8.93357 1.09375 10.5 1.09375C12.0664 1.09375 13.5687 1.71601 14.6763 2.82365C15.784 3.93129 16.4062 5.43357 16.4062 7V8.14013C16.6046 8.15354 16.7918 8.17221 16.968 8.19612C17.7555 8.30112 18.4188 8.52862 18.9455 9.0545C19.4722 9.58125 19.698 10.2445 19.8048 11.032C19.9062 11.7906 19.9062 12.7557 19.9062 13.9519V14.0481C19.9062 15.2443 19.9062 16.2094 19.8048 16.968C19.698 17.7555 19.4722 18.4188 18.9455 18.9455C18.4188 19.4722 17.7555 19.698 16.968 19.8048C16.2094 19.9062 15.2443 19.9062 14.0481 19.9062H6.95188C5.75575 19.9062 4.79062 19.9062 4.032 19.8048C3.2445 19.698 2.58125 19.4722 2.0545 18.9455C1.52775 18.4188 1.302 17.7555 1.19612 16.968C1.09375 16.2094 1.09375 15.2443 1.09375 14.0481V13.9519C1.09375 12.7557 1.09375 11.7906 1.19612 11.032C1.30112 10.2445 1.52863 9.58125 2.0545 9.0545C2.58125 8.52775 3.2445 8.302 4.032 8.19612C4.20758 8.17221 4.39483 8.15354 4.59375 8.14013ZM5.90625 7C5.90625 5.78166 6.39023 4.61322 7.25173 3.75173C8.11322 2.89023 9.28166 2.40625 10.5 2.40625C11.7183 2.40625 12.8868 2.89023 13.7483 3.75173C14.6098 4.61322 15.0938 5.78166 15.0938 7V8.09638C14.7671 8.09404 14.4185 8.09317 14.0481 8.09375H6.95188C6.58204 8.09375 6.2335 8.09462 5.90625 8.09638V7ZM2.98287 9.98288C3.22525 9.7405 3.56475 9.583 4.20788 9.49638C4.86762 9.408 5.74438 9.40625 7 9.40625H14C15.2556 9.40625 16.1315 9.408 16.793 9.49638C17.4352 9.583 17.7747 9.74137 18.0171 9.98288C18.2595 10.2253 18.417 10.5647 18.5036 11.2079C18.592 11.8685 18.5938 12.7444 18.5938 14C18.5938 15.2556 18.592 16.1315 18.5036 16.793C18.417 17.4352 18.2586 17.7747 18.0171 18.0171C17.7747 18.2595 17.4352 18.417 16.7921 18.5036C16.1315 18.592 15.2556 18.5938 14 18.5938H7C5.74438 18.5938 4.86762 18.592 4.207 18.5036C3.56475 18.417 3.22525 18.2586 2.98287 18.0171C2.7405 17.7747 2.583 17.4352 2.49637 16.7921C2.408 16.1315 2.40625 15.2556 2.40625 14C2.40625 12.7444 2.408 11.8676 2.49637 11.207C2.583 10.5647 2.74137 10.2253 2.98287 9.98288Z" fill="#8C0B40"/>
</svg>
