<svg width="84" height="22" viewBox="0 0 84 22" fill="none" xmlns="http://www.w3.org/2000/svg">
<path d="M9.171 15.57V18H1.269V4.887H4.311V15.57H9.171ZM14.4052 8.523C15.1132 8.523 15.7582 8.634 16.3402 8.856C16.9222 9.078 17.4202 9.396 17.8342 9.81C18.2542 10.224 18.5782 10.728 18.8062 11.322C19.0402 11.91 19.1572 12.573 19.1572 13.311C19.1572 14.055 19.0402 14.727 18.8062 15.327C18.5782 15.921 18.2542 16.428 17.8342 16.848C17.4202 17.262 16.9222 17.583 16.3402 17.811C15.7582 18.033 15.1132 18.144 14.4052 18.144C13.6912 18.144 13.0402 18.033 12.4522 17.811C11.8702 17.583 11.3662 17.262 10.9402 16.848C10.5202 16.428 10.1932 15.921 9.9592 15.327C9.7312 14.727 9.6172 14.055 9.6172 13.311C9.6172 12.573 9.7312 11.91 9.9592 11.322C10.1932 10.728 10.5202 10.224 10.9402 9.81C11.3662 9.396 11.8702 9.078 12.4522 8.856C13.0402 8.634 13.6912 8.523 14.4052 8.523ZM14.4052 16.074C15.0472 16.074 15.5182 15.849 15.8182 15.399C16.1242 14.943 16.2772 14.253 16.2772 13.329C16.2772 12.405 16.1242 11.718 15.8182 11.268C15.5182 10.818 15.0472 10.593 14.4052 10.593C13.7452 10.593 13.2622 10.818 12.9562 11.268C12.6502 11.718 12.4972 12.405 12.4972 13.329C12.4972 14.253 12.6502 14.943 12.9562 15.399C13.2622 15.849 13.7452 16.074 14.4052 16.074ZM24.0293 12.843C24.4913 12.843 24.8243 12.729 25.0283 12.501C25.2383 12.267 25.3433 11.967 25.3433 11.601C25.3433 11.223 25.2383 10.926 25.0283 10.71C24.8243 10.494 24.4913 10.386 24.0293 10.386C23.5673 10.386 23.2313 10.494 23.0213 10.71C22.8173 10.926 22.7153 11.223 22.7153 11.601C22.7153 11.781 22.7393 11.946 22.7873 12.096C22.8413 12.246 22.9223 12.378 23.0303 12.492C23.1383 12.6 23.2733 12.687 23.4353 12.753C23.6033 12.813 23.8013 12.843 24.0293 12.843ZM26.1893 18.342C26.1893 18.12 26.0903 17.961 25.8923 17.865C25.6943 17.763 25.4363 17.691 25.1183 17.649C24.8003 17.607 24.4433 17.583 24.0473 17.577C23.6573 17.565 23.2673 17.541 22.8773 17.505C22.7033 17.625 22.5593 17.76 22.4453 17.91C22.3373 18.054 22.2833 18.219 22.2833 18.405C22.2833 18.537 22.3103 18.657 22.3643 18.765C22.4243 18.873 22.5263 18.966 22.6703 19.044C22.8143 19.122 23.0063 19.182 23.2463 19.224C23.4923 19.272 23.8013 19.296 24.1733 19.296C24.5753 19.296 24.9053 19.272 25.1633 19.224C25.4213 19.176 25.6253 19.11 25.7753 19.026C25.9313 18.942 26.0393 18.84 26.0993 18.72C26.1593 18.606 26.1893 18.48 26.1893 18.342ZM28.9433 8.955V9.972C28.9433 10.128 28.8983 10.251 28.8083 10.341C28.7243 10.431 28.5773 10.5 28.3673 10.548L27.6923 10.701C27.7283 10.833 27.7553 10.968 27.7733 11.106C27.7973 11.244 27.8093 11.388 27.8093 11.538C27.8093 12.006 27.7103 12.426 27.5123 12.798C27.3203 13.17 27.0533 13.488 26.7113 13.752C26.3753 14.01 25.9763 14.211 25.5143 14.355C25.0523 14.493 24.5573 14.562 24.0293 14.562C23.8853 14.562 23.7443 14.559 23.6063 14.553C23.4683 14.541 23.3333 14.523 23.2013 14.499C22.9973 14.625 22.8953 14.766 22.8953 14.922C22.8953 15.078 22.9793 15.192 23.1473 15.264C23.3153 15.33 23.5373 15.378 23.8133 15.408C24.0893 15.432 24.4013 15.45 24.7493 15.462C25.1033 15.468 25.4633 15.489 25.8293 15.525C26.1953 15.555 26.5523 15.609 26.9003 15.687C27.2543 15.765 27.5693 15.891 27.8453 16.065C28.1213 16.239 28.3433 16.473 28.5113 16.767C28.6793 17.055 28.7633 17.424 28.7633 17.874C28.7633 18.294 28.6613 18.705 28.4573 19.107C28.2533 19.509 27.9533 19.866 27.5573 20.178C27.1613 20.49 26.6753 20.739 26.0993 20.925C25.5233 21.117 24.8633 21.213 24.1193 21.213C23.3873 21.213 22.7543 21.144 22.2203 21.006C21.6923 20.868 21.2513 20.685 20.8973 20.457C20.5493 20.235 20.2913 19.977 20.1233 19.683C19.9553 19.389 19.8713 19.083 19.8713 18.765C19.8713 18.351 19.9913 18.006 20.2313 17.73C20.4713 17.454 20.8073 17.232 21.2393 17.064C21.0113 16.926 20.8313 16.749 20.6993 16.533C20.5673 16.317 20.5013 16.038 20.5013 15.696C20.5013 15.558 20.5253 15.414 20.5733 15.264C20.6213 15.108 20.6963 14.958 20.7983 14.814C20.9063 14.664 21.0383 14.523 21.1943 14.391C21.3503 14.259 21.5363 14.142 21.7523 14.04C21.2663 13.782 20.8823 13.443 20.6003 13.023C20.3183 12.597 20.1773 12.102 20.1773 11.538C20.1773 11.07 20.2763 10.65 20.4743 10.278C20.6723 9.9 20.9423 9.582 21.2843 9.324C21.6323 9.06 22.0403 8.859 22.5083 8.721C22.9763 8.577 23.4833 8.505 24.0293 8.505C24.8213 8.505 25.5233 8.655 26.1353 8.955H28.9433ZM32.9601 8.667V18H30.1701V8.667H32.9601ZM33.2481 6.111C33.2481 6.333 33.2031 6.543 33.1131 6.741C33.0231 6.933 32.9001 7.104 32.7441 7.254C32.5881 7.398 32.4051 7.515 32.1951 7.605C31.9911 7.689 31.7721 7.731 31.5381 7.731C31.3101 7.731 31.0971 7.689 30.8991 7.605C30.7011 7.515 30.5241 7.398 30.3681 7.254C30.2181 7.104 30.0981 6.933 30.0081 6.741C29.9241 6.543 29.8821 6.333 29.8821 6.111C29.8821 5.883 29.9241 5.67 30.0081 5.472C30.0981 5.274 30.2181 5.1 30.3681 4.95C30.5241 4.8 30.7011 4.683 30.8991 4.599C31.0971 4.515 31.3101 4.473 31.5381 4.473C31.7721 4.473 31.9911 4.515 32.1951 4.599C32.4051 4.683 32.5881 4.8 32.7441 4.95C32.9001 5.1 33.0231 5.274 33.1131 5.472C33.2031 5.67 33.2481 5.883 33.2481 6.111ZM37.4799 9.675C37.6599 9.507 37.8459 9.351 38.0379 9.207C38.2299 9.063 38.4339 8.943 38.6499 8.847C38.8719 8.745 39.1089 8.667 39.3609 8.613C39.6189 8.553 39.8979 8.523 40.1979 8.523C40.7079 8.523 41.1579 8.613 41.5479 8.793C41.9439 8.967 42.2769 9.213 42.5469 9.531C42.8169 9.843 43.0209 10.218 43.1589 10.656C43.2969 11.088 43.3659 11.559 43.3659 12.069V18H40.5759V12.069C40.5759 11.613 40.4709 11.259 40.2609 11.007C40.0509 10.749 39.7419 10.62 39.3339 10.62C39.0279 10.62 38.7399 10.686 38.4699 10.818C38.2059 10.944 37.9479 11.118 37.6959 11.34V18H34.9059V8.667H36.6339C36.9819 8.667 37.2099 8.823 37.3179 9.135L37.4799 9.675Z" fill="#FEF8E6"/>
<path d="M63 11.5H82M82 11.5L73.45 3M82 11.5L73.45 20" stroke="#FFFBF0" stroke-width="2"/>
</svg>
