<svg width="12" height="12" viewBox="0 0 12 12" fill="none" xmlns="http://www.w3.org/2000/svg">
<path d="M11.8316 10.9884L9.60689 8.77999C10.4704 7.70246 10.8886 6.33476 10.7755 4.95814C10.6623 3.58151 10.0264 2.30059 8.99856 1.37875C7.97068 0.456919 6.62894 -0.0357596 5.24923 0.00202291C3.86952 0.0398054 2.55671 0.605177 1.58075 1.58189C0.604779 2.5586 0.0398362 3.8724 0.00208241 5.25316C-0.0356714 6.63392 0.456634 7.97668 1.37777 9.00534C2.2989 10.034 3.57885 10.6704 4.95444 10.7836C6.33002 10.8968 7.69667 10.4783 8.77339 9.61413L10.9801 11.8225C11.0358 11.8787 11.1021 11.9234 11.1752 11.9538C11.2483 11.9843 11.3267 12 11.4058 12C11.485 12 11.5634 11.9843 11.6364 11.9538C11.7095 11.9234 11.7758 11.8787 11.8316 11.8225C11.9396 11.7106 12.0001 11.5611 12.0001 11.4054C12.0001 11.2498 11.9396 11.1003 11.8316 10.9884ZM5.40939 9.61413C4.5792 9.61413 3.76765 9.36776 3.07738 8.90618C2.3871 8.44461 1.8491 7.78855 1.5314 7.02097C1.2137 6.25339 1.13057 5.40877 1.29253 4.59392C1.4545 3.77906 1.85427 3.03057 2.4413 2.4431C3.02833 1.85562 3.77626 1.45554 4.59049 1.29346C5.40473 1.13137 6.24871 1.21456 7.0157 1.5325C7.7827 1.85044 8.43826 2.38885 8.89948 3.07965C9.36071 3.77045 9.60689 4.58262 9.60689 5.41343C9.60689 6.52753 9.16465 7.59599 8.37747 8.38377C7.59028 9.17156 6.52263 9.61413 5.40939 9.61413Z" fill="#1E1E1E" fill-opacity="0.5" style="mix-blend-mode:darken"/>
</svg>
