<svg width="24" height="25" viewBox="0 0 24 25" fill="none" xmlns="http://www.w3.org/2000/svg">
<path d="M4 18.501V14.9593L15 3.98014C15.1667 3.82737 15.3508 3.70931 15.5525 3.62598C15.7542 3.54264 15.9658 3.50098 16.1875 3.50098C16.4092 3.50098 16.6244 3.54264 16.8333 3.62598C17.0422 3.70931 17.2228 3.83431 17.375 4.00098L18.5208 5.16764C18.6875 5.32042 18.8092 5.50098 18.8858 5.70931C18.9625 5.91764 19.0005 6.12598 19 6.33431C19 6.55653 18.9619 6.76848 18.8858 6.97014C18.8097 7.17181 18.688 7.3557 18.5208 7.52181L7.54167 18.501H4ZM16.1667 7.50098L17.3333 6.33431L16.1667 5.16764L15 6.33431L16.1667 7.50098Z" fill="#5C94B4"/>
</svg>
