<svg width="49" height="54" viewBox="0 0 49 54" fill="none" xmlns="http://www.w3.org/2000/svg">
<path d="M6.125 54C4.44062 54 2.99921 53.3962 1.80075 52.1887C0.602291 50.9811 0.00204167 49.5278 0 47.8286V20.0571C0 19.08 0.217437 18.1543 0.652312 17.28C1.08719 16.4057 1.68642 15.6857 2.45 15.12L20.825 1.23429C21.8969 0.411429 23.1219 0 24.5 0C25.8781 0 27.1031 0.411429 28.175 1.23429L46.55 15.12C47.3156 15.6857 47.9159 16.4057 48.3507 17.28C48.7856 18.1543 49.002 19.08 49 20.0571V47.8286C49 49.5257 48.3997 50.9791 47.1992 52.1887C45.9987 53.3983 44.5573 54.0021 42.875 54H6.125ZM19.9062 44.7429C20.3146 44.7429 20.6719 44.5886 20.9781 44.28C21.2844 43.9714 21.4375 43.6114 21.4375 43.2V32.4C22.7135 32.4 23.7987 31.9505 24.6929 31.0515C25.5872 30.1526 26.0333 29.0592 26.0312 27.7714V20.0571C26.0312 19.6457 25.8781 19.2857 25.5719 18.9771C25.2656 18.6686 24.9083 18.5143 24.5 18.5143C24.0917 18.5143 23.7344 18.6686 23.4281 18.9771C23.1219 19.2857 22.9687 19.6457 22.9687 20.0571V27.7714H21.4375V20.0571C21.4375 19.6457 21.2844 19.2857 20.9781 18.9771C20.6719 18.6686 20.3146 18.5143 19.9062 18.5143C19.4979 18.5143 19.1406 18.6686 18.8344 18.9771C18.5281 19.2857 18.375 19.6457 18.375 20.0571V27.7714H16.8437V20.0571C16.8437 19.6457 16.6906 19.2857 16.3844 18.9771C16.0781 18.6686 15.7208 18.5143 15.3125 18.5143C14.9042 18.5143 14.5469 18.6686 14.2406 18.9771C13.9344 19.2857 13.7812 19.6457 13.7812 20.0571V27.7714C13.7812 29.0571 14.2284 30.1505 15.1226 31.0515C16.0169 31.9526 17.101 32.4021 18.375 32.4V43.2C18.375 43.6114 18.5281 43.9714 18.8344 44.28C19.1406 44.5886 19.4979 44.7429 19.9062 44.7429ZM32.1562 44.7429C32.5646 44.7429 32.9219 44.5886 33.2281 44.28C33.5344 43.9714 33.6875 43.6114 33.6875 43.2V20.52C33.6875 19.9543 33.4966 19.4791 33.1148 19.0944C32.733 18.7097 32.2604 18.5163 31.6969 18.5143C30.3187 18.5143 29.2857 19.1571 28.5976 20.4429C27.9096 21.7286 27.5645 23.1429 27.5625 24.6857V30.8571C27.5625 31.68 27.9331 32.2591 28.6742 32.5944C29.4153 32.9297 30.0656 33.3792 30.625 33.9429V43.2C30.625 43.6114 30.7781 43.9714 31.0844 44.28C31.3906 44.5886 31.7479 44.7429 32.1562 44.7429Z" fill="#8C0B40"/>
</svg>
