<svg width="62" height="62" viewBox="0 0 62 62" fill="none" xmlns="http://www.w3.org/2000/svg">
<circle cx="31" cy="31" r="31" fill="#D49D55"/>
<path d="M38.7127 45H40.8255C41.8945 45 42.7727 44.1727 42.9 43.1291L45 22.1545H38.6364V17H36.1291V22.1545H29.8036L30.1855 25.1327C32.3618 25.7309 34.3982 26.8127 35.62 28.0091C37.4527 29.8164 38.7127 31.6873 38.7127 34.7418V45ZM17 43.7273V42.4545H36.1291V43.7273C36.1291 44.4145 35.5564 45 34.8182 45H18.2727C17.5727 45 17 44.4145 17 43.7273ZM36.1291 34.8182C36.1291 24.6364 17 24.6364 17 34.8182H36.1291ZM17 37.3636H36.0909V39.9091H17V37.3636Z" fill="#FFFBF0"/>
</svg>
