<svg width="25" height="27" viewBox="0 0 25 27" fill="none" xmlns="http://www.w3.org/2000/svg">
<path d="M3.125 27C2.26562 27 1.53021 26.6981 0.918749 26.0943C0.307291 25.4906 0.00104167 24.7639 0 23.9143V10.0286C0 9.54 0.110937 9.07714 0.332812 8.64C0.554687 8.20286 0.860417 7.84286 1.25 7.56L10.625 0.617143C11.1719 0.205714 11.7969 0 12.5 0C13.2031 0 13.8281 0.205714 14.375 0.617143L23.75 7.56C24.1406 7.84286 24.4469 8.20286 24.6687 8.64C24.8906 9.07714 25.001 9.54 25 10.0286V23.9143C25 24.7629 24.6937 25.4895 24.0812 26.0943C23.4687 26.6991 22.7333 27.001 21.875 27H3.125ZM10.1562 22.3714C10.3646 22.3714 10.5469 22.2943 10.7031 22.14C10.8594 21.9857 10.9375 21.8057 10.9375 21.6V16.2C11.5885 16.2 12.1422 15.9753 12.5984 15.5258C13.0547 15.0763 13.2823 14.5296 13.2812 13.8857V10.0286C13.2812 9.82286 13.2031 9.64286 13.0469 9.48857C12.8906 9.33428 12.7083 9.25714 12.5 9.25714C12.2917 9.25714 12.1094 9.33428 11.9531 9.48857C11.7969 9.64286 11.7187 9.82286 11.7187 10.0286V13.8857H10.9375V10.0286C10.9375 9.82286 10.8594 9.64286 10.7031 9.48857C10.5469 9.33428 10.3646 9.25714 10.1562 9.25714C9.94791 9.25714 9.76562 9.33428 9.60937 9.48857C9.45312 9.64286 9.375 9.82286 9.375 10.0286V13.8857H8.59375V10.0286C8.59375 9.82286 8.51562 9.64286 8.35937 9.48857C8.20312 9.33428 8.02083 9.25714 7.8125 9.25714C7.60416 9.25714 7.42187 9.33428 7.26562 9.48857C7.10937 9.64286 7.03125 9.82286 7.03125 10.0286V13.8857C7.03125 14.5286 7.25937 15.0753 7.71562 15.5258C8.17187 15.9763 8.725 16.201 9.375 16.2V21.6C9.375 21.8057 9.45312 21.9857 9.60937 22.14C9.76562 22.2943 9.94791 22.3714 10.1562 22.3714ZM16.4062 22.3714C16.6146 22.3714 16.7969 22.2943 16.9531 22.14C17.1094 21.9857 17.1875 21.8057 17.1875 21.6V10.26C17.1875 9.97714 17.0901 9.73954 16.8953 9.5472C16.7005 9.35486 16.4594 9.25817 16.1719 9.25714C15.4687 9.25714 14.9417 9.57857 14.5906 10.2214C14.2396 10.8643 14.0635 11.5714 14.0625 12.3429V15.4286C14.0625 15.84 14.2516 16.1295 14.6297 16.2972C15.0078 16.4649 15.3396 16.6896 15.625 16.9714V21.6C15.625 21.8057 15.7031 21.9857 15.8594 22.14C16.0156 22.2943 16.1979 22.3714 16.4062 22.3714Z" fill="white"/>
</svg>
