<svg width="29" height="29" viewBox="0 0 29 29" fill="none" xmlns="http://www.w3.org/2000/svg">
<mask id="mask0_66_4163" style="mask-type:luminance" maskUnits="userSpaceOnUse" x="2" y="4" width="25" height="21">
<path d="M16.9167 4.83337H12.0834C7.52673 4.83337 5.24781 4.83337 3.83285 6.24954C2.81302 7.26817 2.52785 8.73508 2.4481 11.1771H26.5519C26.4722 8.73508 26.187 7.26817 25.1672 6.24954C23.7522 4.83337 21.4733 4.83337 16.9167 4.83337ZM12.0834 24.1667H16.9167C21.4733 24.1667 23.7522 24.1667 25.1672 22.7505C26.5821 21.3344 26.5833 19.0567 26.5833 14.5C26.5833 13.9668 26.5825 13.4633 26.5809 12.9896H2.4191C2.41668 13.4633 2.41588 13.9668 2.41668 14.5C2.41668 19.0567 2.41668 21.3356 3.83285 22.7505C5.24902 24.1655 7.52673 24.1667 12.0834 24.1667Z" fill="white"/>
<path fill-rule="evenodd" clip-rule="evenodd" d="M6.34375 19.3334C6.34375 19.093 6.43923 18.8625 6.60918 18.6926C6.77914 18.5226 7.00965 18.4271 7.25 18.4271H12.0833C12.3237 18.4271 12.5542 18.5226 12.7241 18.6926C12.8941 18.8625 12.9896 19.093 12.9896 19.3334C12.9896 19.5737 12.8941 19.8042 12.7241 19.9742C12.5542 20.1441 12.3237 20.2396 12.0833 20.2396H7.25C7.00965 20.2396 6.77914 20.1441 6.60918 19.9742C6.43923 19.8042 6.34375 19.5737 6.34375 19.3334ZM14.1979 19.3334C14.1979 19.093 14.2934 18.8625 14.4634 18.6926C14.6333 18.5226 14.8638 18.4271 15.1042 18.4271H16.9167C17.157 18.4271 17.3875 18.5226 17.5575 18.6926C17.7274 18.8625 17.8229 19.093 17.8229 19.3334C17.8229 19.5737 17.7274 19.8042 17.5575 19.9742C17.3875 20.1441 17.157 20.2396 16.9167 20.2396H15.1042C14.8638 20.2396 14.6333 20.1441 14.4634 19.9742C14.2934 19.8042 14.1979 19.5737 14.1979 19.3334Z" fill="black"/>
</mask>
<g mask="url(#mask0_66_4163)">
<path d="M0 0H29V29H0V0Z" fill="white"/>
</g>
</svg>
