<svg width="47" height="47" viewBox="0 0 47 47" fill="none" xmlns="http://www.w3.org/2000/svg">
<rect width="47" height="47" rx="5" fill="white"/>
<path d="M16.0784 20.8794C15.7361 18.1709 16.6004 18.0761 17.0288 18.411C24.2482 22.6781 28.1238 22.4639 29.776 22.9489C31.097 23.338 30.7425 24.4805 30.3128 24.9249L23.5785 32.9027C22.463 34.225 20.9931 36.345 19.544 35.4019C18.9235 34.9969 18.5739 34.1314 18.4569 33.4617C17.7761 30.3924 16.4206 23.5879 16.0784 20.8794Z" stroke="#1E1E1E" stroke-linecap="round" stroke-linejoin="round"/>
<path d="M28.9502 22.7841L31.9246 18.0072C32.2595 17.1873 31.5159 15.8811 28.9502 16.6653L25.8268 21.5529M28.6682 16.8081V15.0956C28.6682 14.6524 28.582 14.1969 28.3038 13.8521C27.8729 13.3154 27.1465 12.9903 25.5498 14.4197M25.3405 21.2464V12.5053C24.9305 11.8306 23.8631 10.6093 22.8794 11.1227C21.8957 11.6361 21.993 12.5053 21.993 12.9005V14.4517M21.993 14.4517V17.1479M21.993 14.4517C21.4808 13.8965 19.9961 12.9005 19.1084 13.6761C18.3562 14.3323 18.6788 17.1479 18.6788 18.789M18.419 30.7372C19.2439 30.7356 20.0344 30.4064 20.6166 29.8221C21.1989 29.2378 21.5252 28.4461 21.5239 27.6212C21.5247 27.2127 21.4451 26.8079 21.2895 26.4302C21.1339 26.0524 20.9054 25.709 20.6171 25.4195C20.3287 25.1301 19.9862 24.9002 19.6091 24.7431C19.2319 24.586 18.8275 24.5048 18.419 24.504C17.8847 24.504 17.3836 24.6394 16.9453 24.877" stroke="#1E1E1E" stroke-linecap="round" stroke-linejoin="round"/>
</svg>
