<svg width="16" height="16" viewBox="0 0 16 16" fill="none" xmlns="http://www.w3.org/2000/svg">
<path d="M8 4.00098C9.10449 4.00098 10 3.10554 10 2.00098C10 0.896414 9.10449 0.000976562 8 0.000976562C6.89551 0.000976562 6 0.896414 6 2.00098C6 3.10554 6.89551 4.00098 8 4.00098Z" fill="#6B6C7E"/>
<path d="M10 7.98535C10 9.08991 9.10449 9.98535 8 9.98535C6.89551 9.98535 6 9.08991 6 7.98535C6 6.88079 6.89551 5.98535 8 5.98535C9.10449 5.98535 10 6.88079 10 7.98535Z" fill="#6B6C7E"/>
<path d="M10 14.001C10 15.1055 9.10449 16.001 8 16.001C6.89551 16.001 6 15.1055 6 14.001C6 12.8964 6.89551 12.001 8 12.001C9.10449 12.001 10 12.8964 10 14.001Z" fill="#6B6C7E"/>
</svg>
