<svg width="20" height="20" viewBox="0 0 20 20" fill="none" xmlns="http://www.w3.org/2000/svg">
<path d="M5.20846 5.83329C5.20846 4.56246 5.71329 3.34368 6.6119 2.44507C7.51051 1.54646 8.72929 1.04163 10.0001 1.04163C11.271 1.04163 12.4897 1.54646 13.3883 2.44507C14.287 3.34368 14.7918 4.56246 14.7918 5.83329C14.7918 7.10412 14.287 8.3229 13.3883 9.22151C12.4897 10.1201 11.271 10.625 10.0001 10.625C8.72929 10.625 7.51051 10.1201 6.6119 9.22151C5.71329 8.3229 5.20846 7.10412 5.20846 5.83329ZM9.83179 11.8841C9.86766 11.8787 9.90385 11.8757 9.94012 11.875H10.0601C10.0968 11.875 10.1329 11.878 10.1685 11.8841L16.2476 12.9533L16.2793 12.96C17.3993 13.2183 18.6026 13.9291 18.8368 15.31L18.8401 15.3341L18.9351 16.065V16.0666C19.1551 17.7408 17.8276 18.9583 16.2601 18.9583C16.2255 18.9577 16.191 18.9549 16.1568 18.95H3.74012C2.17262 18.95 0.844289 17.7316 1.06512 16.0566L1.16012 15.3325L1.16429 15.3075C1.39762 13.9516 2.61096 13.2008 3.72846 12.9583L3.75262 12.9533L9.83179 11.8841Z" fill="#8C0B40"/>
</svg>
