<svg width="18" height="18" viewBox="0 0 18 18" fill="none" xmlns="http://www.w3.org/2000/svg">
<path d="M3.00001 7.49998L2.46976 8.03023L1.93951 7.49998L2.46976 6.96973L3.00001 7.49998ZM15.75 13.5C15.75 13.6989 15.671 13.8897 15.5303 14.0303C15.3897 14.171 15.1989 14.25 15 14.25C14.8011 14.25 14.6103 14.171 14.4697 14.0303C14.329 13.8897 14.25 13.6989 14.25 13.5H15.75ZM6.21976 11.7802L2.46976 8.03023L3.53026 6.96973L7.28026 10.7197L6.21976 11.7802ZM2.46976 6.96973L6.21976 3.21973L7.28026 4.28023L3.53026 8.03023L2.46976 6.96973ZM3.00001 6.74998H10.5V8.24998H3.00001V6.74998ZM15.75 12V13.5H14.25V12H15.75ZM10.5 6.74998C11.8924 6.74998 13.2278 7.3031 14.2123 8.28767C15.1969 9.27223 15.75 10.6076 15.75 12H14.25C14.25 11.0054 13.8549 10.0516 13.1517 9.34833C12.4484 8.64506 11.4946 8.24998 10.5 8.24998V6.74998Z" fill="black" fill-opacity="0.5"/>
</svg>
