<svg width="237" height="1" viewBox="0 0 237 1" fill="none" xmlns="http://www.w3.org/2000/svg">
<line y1="0.5" x2="5" y2="0.5" stroke="#EAE1C0"/>
<line x1="12.6" y1="0.5" x2="19.6" y2="0.5" stroke="#EAE1C0"/>
<line x1="27.2" y1="0.5" x2="34.2" y2="0.5" stroke="#EAE1C0"/>
<line x1="41.8" y1="0.5" x2="48.8" y2="0.5" stroke="#EAE1C0"/>
<line x1="56.4" y1="0.5" x2="63.4" y2="0.5" stroke="#EAE1C0"/>
<line x1="71" y1="0.5" x2="78" y2="0.5" stroke="#EAE1C0"/>
<line x1="85.6" y1="0.5" x2="92.6" y2="0.5" stroke="#EAE1C0"/>
<line x1="100.2" y1="0.5" x2="107.2" y2="0.5" stroke="#EAE1C0"/>
<line x1="114.8" y1="0.5" x2="121.8" y2="0.5" stroke="#EAE1C0"/>
<line x1="129.4" y1="0.5" x2="136.4" y2="0.5" stroke="#EAE1C0"/>
<line x1="144" y1="0.5" x2="151" y2="0.5" stroke="#EAE1C0"/>
<line x1="158.6" y1="0.5" x2="165.6" y2="0.5" stroke="#EAE1C0"/>
<line x1="173.2" y1="0.5" x2="180.2" y2="0.5" stroke="#EAE1C0"/>
<line x1="187.8" y1="0.5" x2="194.8" y2="0.5" stroke="#EAE1C0"/>
<line x1="202.4" y1="0.5" x2="209.4" y2="0.5" stroke="#EAE1C0"/>
<line x1="217" y1="0.5" x2="224" y2="0.5" stroke="#EAE1C0"/>
<line x1="231.6" y1="0.5" x2="236.6" y2="0.5" stroke="#EAE1C0"/>
</svg>
