<svg width="8" height="8" viewBox="0 0 8 8" fill="none" xmlns="http://www.w3.org/2000/svg">
<path d="M5.52996 3H4.99996V1.33333C4.99996 1.15 4.84996 1 4.66663 1H3.33329C3.14996 1 2.99996 1.15 2.99996 1.33333V3H2.46996C2.17329 3 2.02329 3.36 2.23329 3.57L3.76329 5.1C3.89329 5.23 4.10329 5.23 4.23329 5.1L5.76329 3.57C5.97329 3.36 5.82663 3 5.52996 3ZM1.66663 6.33333C1.66663 6.51667 1.81663 6.66667 1.99996 6.66667H5.99996C6.18329 6.66667 6.33329 6.51667 6.33329 6.33333C6.33329 6.15 6.18329 6 5.99996 6H1.99996C1.81663 6 1.66663 6.15 1.66663 6.33333Z" fill="black"/>
</svg>
