<svg width="14" height="14" viewBox="0 0 14 14" fill="none" xmlns="http://www.w3.org/2000/svg">
<path fill-rule="evenodd" clip-rule="evenodd" d="M8.05876 2.08771C8.14411 1.96148 8.17669 1.80687 8.14952 1.65694C8.12235 1.507 8.03759 1.37365 7.91337 1.2854C7.78915 1.19716 7.63533 1.16101 7.48481 1.18471C7.33429 1.20841 7.19902 1.29006 7.10792 1.41221L6.52459 2.23413C6.50233 2.26523 6.48318 2.29844 6.46742 2.33329H4.37501C4.14294 2.33329 3.92038 2.42548 3.75629 2.58957C3.59219 2.75367 3.50001 2.97623 3.50001 3.20829V4.08329L3.50176 4.13229C3.33066 4.19237 3.18246 4.30413 3.07765 4.4521C2.97284 4.60007 2.91658 4.77696 2.91667 4.95829V5.83329C2.91667 5.9875 2.97773 6.13543 3.08649 6.24474C3.19526 6.35406 3.34288 6.41585 3.49709 6.41663L4.03376 11.7833C4.06268 12.0711 4.19746 12.3378 4.41196 12.5319C4.62645 12.7259 4.90537 12.8333 5.19459 12.8333H8.80542C9.09465 12.8333 9.37356 12.7259 9.58806 12.5319C9.80255 12.3378 9.93733 12.0711 9.96626 11.7833L10.5029 6.41663C10.6571 6.41585 10.8048 6.35406 10.9135 6.24474C11.0223 6.13543 11.0833 5.9875 11.0833 5.83329V4.95829C11.0834 4.77696 11.0272 4.60007 10.9224 4.4521C10.8175 4.30413 10.6693 4.19237 10.4983 4.13229L10.5 4.08329V3.20829C10.5 2.97623 10.4078 2.75367 10.2437 2.58957C10.0796 2.42548 9.85707 2.33329 9.62501 2.33329H7.88492L8.05876 2.08771ZM4.66667 4.08329V3.49996H9.33334V4.08329H4.66667Z" fill="#D49D55"/>
</svg>
