<svg width="11" height="15" viewBox="0 0 11 15" fill="none" xmlns="http://www.w3.org/2000/svg">
<path d="M4.62206 1.71938C4.66756 1.74668 4.70749 1.78584 4.73899 1.83404C4.77049 1.88225 4.79278 1.9383 4.80425 1.99818C4.81662 2.06393 5.15625 3.82328 5.15625 5.00339C5.15625 5.79401 4.85238 6.49892 4.37937 6.95582C4.2075 7.12226 4.125 7.30369 4.125 7.45516V7.85962C4.125 7.87904 4.12592 7.89735 4.12775 7.91455C4.15113 8.12095 4.23569 8.88744 4.31475 9.68222C4.39244 10.462 4.46875 11.3126 4.46875 11.6613C4.46875 12.1027 4.32388 12.5261 4.06602 12.8382C3.80816 13.1504 3.45842 13.3258 3.09375 13.3258C2.72908 13.3258 2.37934 13.1504 2.12148 12.8382C1.86362 12.5261 1.71875 12.1027 1.71875 11.6613C1.71875 11.3117 1.79506 10.4629 1.87275 9.68222C1.95181 8.88744 2.03638 8.12095 2.05975 7.91455L2.0625 7.85962V7.45516C2.0625 7.30369 1.98 7.12226 1.80813 6.95582C1.56577 6.72195 1.37007 6.42497 1.23557 6.08695C1.10107 5.74894 1.03124 5.37857 1.03125 5.00339C1.03125 3.82744 1.36813 2.07724 1.38325 1.99901C1.40112 1.9065 1.44436 1.82405 1.50591 1.7651C1.56747 1.70616 1.6437 1.6742 1.72219 1.67444C1.91469 1.67444 2.07075 1.86336 2.07075 2.09638V4.59143C2.06804 4.64763 2.07487 4.70391 2.09083 4.75679C2.10679 4.80967 2.13153 4.85803 2.16353 4.89888C2.19552 4.93973 2.2341 4.97221 2.27687 4.99432C2.31964 5.01642 2.3657 5.02768 2.41221 5.02739C2.45871 5.02711 2.50468 5.01529 2.54726 4.99266C2.58984 4.97003 2.62815 4.93708 2.6598 4.89584C2.69145 4.85459 2.71579 4.80594 2.7313 4.75286C2.74682 4.69979 2.75318 4.64343 2.75 4.58727V2.09056C2.75 1.9802 2.78622 1.87436 2.85068 1.79632C2.91515 1.71828 3.00258 1.67444 3.09375 1.67444C3.18492 1.67444 3.27235 1.71828 3.33682 1.79632C3.40128 1.87436 3.4375 1.9802 3.4375 2.09056V4.60891C3.43941 4.71816 3.4771 4.82203 3.54228 4.89765C3.60745 4.97326 3.69477 5.01444 3.78503 5.01213C3.87529 5.00981 3.96109 4.96418 4.02355 4.88529C4.08602 4.80639 4.12004 4.70069 4.11812 4.59143V2.09472C4.11812 1.86253 4.2735 1.67444 4.466 1.67444C4.48112 1.67444 4.5485 1.67444 4.62206 1.71938ZM6.1875 5.41951C6.1875 4.42625 6.51345 3.47368 7.09364 2.77134C7.67383 2.06901 8.46074 1.67444 9.28125 1.67444C9.37242 1.67444 9.45985 1.71828 9.52432 1.79632C9.58878 1.87436 9.625 1.9802 9.625 2.09056V7.06151L9.63806 7.20882C9.69275 7.82994 9.74523 8.45135 9.7955 9.07303C9.88006 10.1183 9.96875 11.2901 9.96875 11.6613C9.96875 12.1027 9.82388 12.5261 9.56602 12.8382C9.30816 13.1504 8.95842 13.3258 8.59375 13.3258C8.22908 13.3258 7.87934 13.1504 7.62148 12.8382C7.36362 12.5261 7.21875 12.1027 7.21875 11.6613C7.21875 11.2901 7.30744 10.1183 7.392 9.07303C7.43531 8.54289 7.47863 8.03523 7.51094 7.65906L7.52469 7.5001H6.875C6.69266 7.5001 6.5178 7.41242 6.38886 7.25634C6.25993 7.10027 6.1875 6.88858 6.1875 6.66786V5.41951Z" fill="#FBFBFB"/>
</svg>
