<svg width="28" height="28" viewBox="0 0 28 28" fill="none" xmlns="http://www.w3.org/2000/svg">
<circle cx="14" cy="14" r="14" fill="white"/>
<path fill-rule="evenodd" clip-rule="evenodd" d="M11.8356 8.76545C12.0292 8.35755 12.4468 8.0741 12.9293 8.0741H15.6948C16.1773 8.0741 16.5942 8.35755 16.7885 8.76545C17.2607 8.7696 17.6292 8.79103 17.9583 8.91963C18.3511 9.0733 18.6928 9.33445 18.9441 9.67321C19.1979 10.0147 19.3175 10.4524 19.4806 11.0545L19.9936 12.9364L20.1872 13.5178L20.2038 13.5386C20.8267 14.3364 20.5301 15.5228 19.9369 17.8948C19.5594 19.4041 19.3714 20.1583 18.8086 20.598C18.2459 21.0371 17.4681 21.0371 15.9125 21.0371H12.7115C11.156 21.0371 10.3782 21.0371 9.81545 20.598C9.25268 20.1583 9.06394 19.4041 8.68715 17.8948C8.09396 15.5228 7.79737 14.3364 8.42029 13.5386L8.43688 13.5178L8.63046 12.9364L9.14345 11.0545C9.3073 10.4524 9.4269 10.014 9.67994 9.67252C9.93141 9.33401 10.2731 9.07311 10.6658 8.91963C10.9949 8.79103 11.3627 8.76891 11.8356 8.76545ZM11.837 9.80457C11.3793 9.80941 11.1954 9.82669 11.0433 9.88615C10.8317 9.96889 10.6477 10.1095 10.5123 10.292C10.3907 10.4558 10.3188 10.6847 10.1183 11.4223L9.72419 12.8666C10.4294 12.7408 11.3931 12.7408 12.7109 12.7408H15.9125C17.231 12.7408 18.194 12.7408 18.8992 12.8652L18.5058 11.421C18.3053 10.6833 18.2334 10.4544 18.1117 10.2906C17.9764 10.1081 17.7924 9.96751 17.5808 9.88476C17.4287 9.82531 17.2448 9.80802 16.7871 9.80318C16.6889 10.0098 16.5342 10.1843 16.3409 10.3066C16.1475 10.4288 15.9235 10.4938 15.6948 10.4938H12.9293C12.7007 10.4938 12.4767 10.429 12.2833 10.3069C12.09 10.1848 11.9352 10.011 11.837 9.80457Z" fill="#8C0B40"/>
</svg>
