<svg width="16" height="16" viewBox="0 0 16 16" fill="none" xmlns="http://www.w3.org/2000/svg">
<path fill-rule="evenodd" clip-rule="evenodd" d="M5.61199 2.16667C5.79866 1.77333 6.20132 1.5 6.66666 1.5H9.33332C9.79866 1.5 10.2007 1.77333 10.388 2.16667C10.8433 2.17067 11.1987 2.19133 11.516 2.31533C11.8948 2.46351 12.2243 2.71534 12.4667 3.042C12.7113 3.37133 12.8267 3.79333 12.984 4.374L13.4787 6.18867L13.6653 6.74933L13.6813 6.76933C14.282 7.53867 13.996 8.68267 13.424 10.97C13.06 12.4253 12.8787 13.1527 12.336 13.5767C11.7933 14 11.0433 14 9.54332 14H6.45666C4.95666 14 4.20666 14 3.66399 13.5767C3.12132 13.1527 2.93932 12.4253 2.57599 10.97C2.00399 8.68267 1.71799 7.53867 2.31866 6.76933L2.33466 6.74933L2.52132 6.18867L3.01599 4.374C3.17399 3.79333 3.28932 3.37067 3.53332 3.04133C3.77581 2.71492 4.10525 2.46333 4.48399 2.31533C4.80132 2.19133 5.15599 2.17 5.61199 2.16667ZM5.61332 3.16867C5.17199 3.17333 4.99466 3.19 4.84799 3.24733C4.64397 3.32712 4.46653 3.46274 4.33599 3.63867C4.21866 3.79667 4.14932 4.01733 3.95599 4.72867L3.57599 6.12133C4.25599 6 5.18532 6 6.45599 6H9.54332C10.8147 6 11.7433 6 12.4233 6.12L12.044 4.72733C11.8507 4.016 11.7813 3.79533 11.664 3.63733C11.5335 3.46141 11.356 3.32579 11.152 3.246C11.0053 3.18867 10.828 3.172 10.3867 3.16733C10.292 3.36656 10.1428 3.53488 9.95637 3.65276C9.76993 3.77064 9.5539 3.83325 9.33332 3.83333H6.66666C6.44615 3.83331 6.23017 3.7708 6.04374 3.65304C5.85732 3.53528 5.70808 3.36777 5.61332 3.16867Z" fill="#FFFBF0"/>
</svg>
