<svg width="28" height="28" viewBox="0 0 28 28" fill="none" xmlns="http://www.w3.org/2000/svg">
<circle cx="14" cy="14" r="14" fill="white"/>
<path d="M13.25 17.75H14.75V13.25H13.25V17.75ZM14 11.75C14.2125 11.75 14.3908 11.678 14.5348 11.534C14.6788 11.39 14.7505 11.212 14.75 11C14.7495 10.788 14.6775 10.61 14.534 10.466C14.3905 10.322 14.2125 10.25 14 10.25C13.7875 10.25 13.6095 10.322 13.466 10.466C13.3225 10.61 13.2505 10.788 13.25 11C13.2495 11.212 13.3215 11.3903 13.466 11.5347C13.6105 11.6793 13.7885 11.751 14 11.75ZM14 21.5C12.9625 21.5 11.9875 21.303 11.075 20.909C10.1625 20.515 9.36875 19.9808 8.69375 19.3063C8.01875 18.6318 7.4845 17.838 7.091 16.925C6.6975 16.012 6.5005 15.037 6.5 14C6.4995 12.963 6.6965 11.988 7.091 11.075C7.4855 10.162 8.01975 9.36825 8.69375 8.69375C9.36775 8.01925 10.1615 7.485 11.075 7.091C11.9885 6.697 12.9635 6.5 14 6.5C15.0365 6.5 16.0115 6.697 16.925 7.091C17.8385 7.485 18.6323 8.01925 19.3063 8.69375C19.9803 9.36825 20.5148 10.162 20.9098 11.075C21.3048 11.988 21.5015 12.963 21.5 14C21.4985 15.037 21.3015 16.012 20.909 16.925C20.5165 17.838 19.9823 18.6318 19.3063 19.3063C18.6303 19.9808 17.8365 20.5152 16.925 20.9097C16.0135 21.3042 15.0385 21.501 14 21.5Z" fill="#8C0B40"/>
</svg>
