<svg width="15" height="15" viewBox="0 0 15 15" fill="none" xmlns="http://www.w3.org/2000/svg">
<path d="M3.47876 6.26428C3.30501 4.88928 3.74376 4.84116 3.96126 5.01116C7.62626 7.17741 9.59376 7.06866 10.4325 7.31491C11.1031 7.51241 10.9231 8.09241 10.705 8.31803L7.28626 12.368C6.72001 13.0393 5.97376 14.1155 5.23813 13.6368C4.92313 13.4312 4.74563 12.9918 4.68626 12.6518C4.34063 11.0937 3.65251 7.63928 3.47876 6.26428Z" stroke="#D49D55" stroke-width="0.5" stroke-linecap="round" stroke-linejoin="round"/>
<path d="M10.0131 7.23119L11.5231 4.80619C11.6931 4.38994 11.3156 3.72682 10.0131 4.12494L8.42751 6.60619M9.87001 4.19744V3.32807C9.87001 3.10307 9.82626 2.87182 9.68501 2.69682C9.46626 2.42432 9.09751 2.25932 8.28689 2.98494M8.18064 6.45057V2.01307C7.97251 1.67057 7.43064 1.05057 6.93126 1.31119C6.43189 1.57182 6.48126 2.01307 6.48126 2.21369V3.00119M6.48126 3.00119V4.36994M6.48126 3.00119C6.22126 2.71932 5.46751 2.21369 5.01689 2.60744C4.63501 2.94057 4.79876 4.36994 4.79876 5.20307M4.66689 11.2687C5.08566 11.2679 5.48695 11.1008 5.78254 10.8041C6.07812 10.5075 6.2438 10.1056 6.24314 9.68682C6.24355 9.47941 6.2031 9.27395 6.12411 9.08218C6.04512 8.8904 5.92913 8.71606 5.78276 8.56911C5.63639 8.42216 5.46251 8.30548 5.27105 8.22573C5.07959 8.14598 4.87429 8.10473 4.66689 8.10432C4.39564 8.10432 4.14126 8.17307 3.91876 8.29369" stroke="#D49D55" stroke-width="0.5" stroke-linecap="round" stroke-linejoin="round"/>
</svg>
