<svg width="28" height="28" viewBox="0 0 28 28" fill="none" xmlns="http://www.w3.org/2000/svg">
<rect width="28" height="28" rx="5" fill="#8C0B40"/>
<path d="M14.1177 6.51965C18.3141 6.51965 21.7157 9.9213 21.7157 14.1177C21.7157 18.3141 18.3141 21.7157 14.1177 21.7157C9.92126 21.7157 6.51962 18.3141 6.51962 14.1177C6.51962 9.9213 9.92126 6.51965 14.1177 6.51965ZM14.1177 9.55887C13.9161 9.55887 13.7229 9.63892 13.5804 9.78141C13.4379 9.9239 13.3579 10.1172 13.3579 10.3187V14.1177C13.3579 14.3192 13.438 14.5124 13.5805 14.6549L15.8599 16.9343C16.0032 17.0727 16.1951 17.1493 16.3943 17.1475C16.5936 17.1458 16.7841 17.0659 16.925 16.925C17.0659 16.7842 17.1458 16.5936 17.1475 16.3944C17.1492 16.1952 17.0727 16.0032 16.9343 15.8599L14.8775 13.8031V10.3187C14.8775 10.1172 14.7974 9.9239 14.6549 9.78141C14.5124 9.63892 14.3192 9.55887 14.1177 9.55887Z" fill="#FFFBF0"/>
</svg>
